<?xml version="1.0" encoding="UTF-8"?>
<svg id="Layer_2" data-name="Layer 2" xmlns="http://www.w3.org/2000/svg" xmlns:xlink="http://www.w3.org/1999/xlink" viewBox="0 0 114.18 14.47">
  <defs>
    <style>
      .cls-1 {
        fill: url(#linear-gradient);
        stroke-width: 0px;
      }
    </style>
    <linearGradient id="linear-gradient" x1=".5" y1="7.23" x2="114.68" y2="7.23" gradientUnits="userSpaceOnUse">
      <stop offset="0" stop-color="#353d47"/>
      <stop offset=".18" stop-color="#215058"/>
      <stop offset=".42" stop-color="#0e6269"/>
      <stop offset=".67" stop-color="#036d73"/>
      <stop offset=".94" stop-color="#007177"/>
    </linearGradient>
  </defs>
  <g id="zwart_logo" data-name="zwart logo">
    <path class="cls-1" d="M6.83,8c2.06.04,3.77.04,6.16.04v.62c-.75.18-1.12.68-1.12,2.44,0,1.52.27,2.04.85,2.32v.54c-.5-.08-1.04-.14-1.73-.14-2.12,0-3.02.62-4.79.62-3.56,0-6.2-2.7-6.2-6.6S2.62,1.34,6.24,1.34c1.73,0,2.41.56,3.62.56.21,0,.73-.02,1.17-.22-.08,1.18.1,2.42.54,3.78h-.89c-.87-1.86-2.04-3.12-3.7-3.12-2.02,0-3,2.02-3,4.96s1.08,6.06,3.1,6.06c1.27,0,1.39-1.04,1.39-2.2,0-1.82-.42-2.36-1.64-2.5v-.66ZM24.45,12.67v.72c-.5.28-1.1.52-1.9.52-1.22,0-2.44-.36-2.44-1.9h-.22c0,.38-1,1.9-3.16,1.9-1.28,0-2.74-.6-2.74-2.46s1.52-2.86,5.66-3.62v-1.04c0-2.24-.54-2.58-1.04-2.58-1.74,0,0,3.26-2.48,3.26-1.08,0-1.52-.66-1.52-1.36.04-1.48,2-2.62,4.94-2.62,1.56,0,3.68.24,3.68,2.92v4.82c0,.8.28,1.54,1.22,1.44ZM19.65,8.55c-1.84.34-2.3,1.62-2.3,2.48,0,.74.3,1.48.96,1.48.88,0,1.34-.92,1.34-1.8v-2.16ZM43.06,12.08v-4.6c0-2.94-1.8-3.6-3.2-3.6-1.98,0-3.04,1.26-3.38,2.04-.52-1.62-1.84-2.04-3-2.04-2.08,0-3.12,1.28-3.44,2.2h-.16l.34-1.6c-.14-.28-.36-.52-.66-.64-1.46.82-2.6,1.1-4.08,1.44v.74c.74-.16,1.26.28,1.26,1.18v4.88c0,.9-.58,1.16-1.32,1.24v.76c2.08-.06,4.14-.06,6.22,0v-.76c-.8.06-1.34-.34-1.34-1.24v-4.62c0-.7.32-1.92,1.5-1.92.68,0,1.32.38,1.32,1.92v4.62c0,.9-.58,1.3-1.36,1.24v.76c2.12-.06,4.18-.06,6.26,0v-.76c-.8.02-1.34-.34-1.34-1.24v-4.66c.02-.88.5-1.88,1.56-1.88.68,0,1.26.38,1.26,1.92v4.62c0,.9-.58,1.3-1.36,1.24v.76c2.12-.06,4.18-.06,6.26,0v-.76c-.8-.08-1.34-.34-1.34-1.24ZM52.78,9.14h-4.2c.14,2.36.86,4.12,2.64,4.12.86,0,1.5-.36,2.04-1.32h.86c-.78,1.82-2.72,2.36-4.18,2.36-2.6,0-4.94-1.66-4.94-5.18s2.26-5.24,5-5.24c2.52,0,4.12,1.48,4.12,3.4,0,.92-.34,1.86-1.34,1.86ZM49.74,4.76c-1,0-1.18,1.74-1.18,3.46v.08h2.38c.12-1.94-.26-3.54-1.2-3.54ZM61.44,5.93c-1.36-.88-2.18-1.46-2.18-2.34,0-.8.64-1.38,1.62-1.38.7,0,1.88.34,2.82,2.36h.64l-.2-3.12h-.64c-.02.22-.32.46-.74.46-.64,0-1.26-.62-2.84-.62-2.06,0-3.98,1.12-3.98,3.5s1.8,3.16,3.58,4.26c2.18,1.3,2.34,2.02,2.34,2.64,0,1.26-1.2,1.62-1.98,1.62-1.02,0-2.56-.76-3.38-2.64h-.64l.1,3.36h.66c0-.2.32-.7.88-.7.82,0,1.76,1,3.66,1,2.2,0,4.22-1.38,4.22-3.62,0-2.58-2.58-3.88-3.94-4.78ZM77.56,12.11v-4.62c0-2.92-1.74-3.62-3.22-3.62-2.04,0-3.1,1.32-3.5,2.2h-.14l.36-1.48v-.78c0-1.28,0-2.04.12-3.14-.14-.28-.36-.52-.66-.64-1.28.74-2.9,1.34-4.3,1.44v.74c.84,0,1.26.02,1.26,1.6v8.3c0,.9-.56,1.16-1.32,1.24v.76c2.1-.06,4.14-.06,6.22,0v-.76c-.78.06-1.32-.34-1.32-1.24v-4.62c.04-.8.36-1.96,1.52-1.96.7,0,1.42.4,1.42,1.96v4.62c0,.9-.58,1.3-1.36,1.24v.76c2.12-.06,4.18-.06,6.26,0v-.76c-.8-.08-1.34-.34-1.34-1.24ZM90.3,12.87v.72c-.5.28-1.1.52-1.9.52-1.22,0-2.44-.36-2.44-1.9h-.22c0,.38-1,1.9-3.16,1.9-1.28,0-2.74-.6-2.74-2.46s1.52-2.86,5.66-3.62v-1.04c0-2.24-.54-2.58-1.04-2.58-1.74,0,0,3.26-2.48,3.26-1.08,0-1.52-.66-1.52-1.36.04-1.48,2-2.62,4.94-2.62,1.56,0,3.68.24,3.68,2.92v4.82c0,.8.28,1.54,1.22,1.44ZM85.5,8.75c-1.84.34-2.3,1.62-2.3,2.48,0,.74.3,1.48.96,1.48.88,0,1.34-.92,1.34-1.8v-2.16ZM97.27,4.59c1.72,0-.02,3.56,2.3,3.56,1.04,0,1.48-.78,1.48-1.58,0-1.72-1.82-2.88-4-2.88-2.52,0-5.16,1.54-5.16,5.3s2.5,5.12,5.18,5.12c1.48,0,2.96-.48,3.9-2.38h-.78c-.58,1.14-1.38,1.38-2,1.38-2.1,0-2.62-2.94-2.62-4.9,0-1.76.44-3.62,1.7-3.62ZM111.68,11.6l-2.5-3.66c2.04-2.28,2.92-2.96,4.22-3.14v-.74c-1.86.06-3.38.06-5.04,0v.74c2.06.18,1.66,2.04-1.46,4V3.78c0-1.28,0-2.04.12-3.14-.12-.28-.36-.52-.64-.64-1.3.74-2.9,1.34-4.3,1.44v.74c.82,0,1.24.02,1.24,1.6v8.3c0,.9-.56,1.16-1.26,1.24v.76c2.04-.04,4.1-.04,6.16,0v-.76c-.8-.08-1.32-.34-1.32-1.24v-2.3l1.86,2.74c1.44,2.1,3.34,1.94,4.62,1.94l.8-1.02c-.9,0-1.66-.7-2.5-1.84Z"/>
  </g>
</svg>