<?xml version="1.0" encoding="UTF-8"?>
<svg id="Layer_2" data-name="Layer 2" xmlns="http://www.w3.org/2000/svg" viewBox="0 0 114.18 14.47">
  <g id="zwart_logo" data-name="zwart logo">
    <g>
      <path class="cls-1" d="M0,7.84C0,3.96,2.62,1.34,6.24,1.34c1.73,0,2.41.56,3.62.56.21,0,.73-.02,1.17-.22-.08,1.18.1,2.42.54,3.78h-.89c-.87-1.86-2.04-3.12-3.7-3.12-2.02,0-3,2.02-3,4.96s1.08,6.06,3.1,6.06c1.27,0,1.39-1.04,1.39-2.2,0-1.82-.42-2.36-1.64-2.5v-.66c2.06.04,3.77.04,6.16.04v.62c-.75.18-1.12.68-1.12,2.44,0,1.52.27,2.04.85,2.32v.54c-.5-.08-1.04-.14-1.73-.14-2.12,0-3.02.62-4.79.62-3.56,0-6.2-2.7-6.2-6.6Z"/>
      <path class="cls-1" d="M23.23,11.23c0,.8.28,1.54,1.22,1.44v.72c-.5.28-1.1.52-1.9.52-1.22,0-2.44-.36-2.44-1.9h-.22c0,.38-1,1.9-3.16,1.9-1.28,0-2.74-.6-2.74-2.46s1.52-2.86,5.66-3.62v-1.04c0-2.24-.54-2.58-1.04-2.58-1.74,0,0,3.26-2.48,3.26-1.08,0-1.52-.66-1.52-1.36.04-1.48,2-2.62,4.94-2.62,1.56,0,3.68.24,3.68,2.92v4.82ZM19.65,10.71v-2.16c-1.84.34-2.3,1.62-2.3,2.48,0,.74.3,1.48.96,1.48.88,0,1.34-.92,1.34-1.8Z"/>
      <path class="cls-1" d="M43.06,12.08c0,.9.54,1.16,1.34,1.24v.76c-2.08-.06-4.14-.06-6.26,0v-.76c.78.06,1.36-.34,1.36-1.24v-4.62c0-1.54-.58-1.92-1.26-1.92-1.06,0-1.54,1-1.56,1.88v4.66c0,.9.54,1.26,1.34,1.24v.76c-2.08-.06-4.14-.06-6.26,0v-.76c.78.06,1.36-.34,1.36-1.24v-4.62c0-1.54-.64-1.92-1.32-1.92-1.18,0-1.5,1.22-1.5,1.92v4.62c0,.9.54,1.3,1.34,1.24v.76c-2.08-.06-4.14-.06-6.22,0v-.76c.74-.08,1.32-.34,1.32-1.24v-4.88c0-.9-.52-1.34-1.26-1.18v-.74c1.48-.34,2.62-.62,4.08-1.44.3.12.52.36.66.64l-.34,1.6h.16c.32-.92,1.36-2.2,3.44-2.2,1.16,0,2.48.42,3,2.04.34-.78,1.4-2.04,3.38-2.04,1.4,0,3.2.66,3.2,3.6v4.6Z"/>
      <path class="cls-1" d="M53.26,11.94h.86c-.78,1.82-2.72,2.36-4.18,2.36-2.6,0-4.94-1.66-4.94-5.18s2.26-5.24,5-5.24c2.52,0,4.12,1.48,4.12,3.4,0,.92-.34,1.86-1.34,1.86h-4.2c.14,2.36.86,4.12,2.64,4.12.86,0,1.5-.36,2.04-1.32ZM48.56,8.22v.08h2.38c.12-1.94-.26-3.54-1.2-3.54-1,0-1.18,1.74-1.18,3.46Z"/>
      <path class="cls-1" d="M57.5,13.33c-.56,0-.88.5-.88.7h-.66l-.1-3.36h.64c.82,1.88,2.36,2.64,3.38,2.64.78,0,1.98-.36,1.98-1.62,0-.62-.16-1.34-2.34-2.64-1.78-1.1-3.58-1.94-3.58-4.26s1.92-3.5,3.98-3.5c1.58,0,2.2.62,2.84.62.42,0,.72-.24.74-.46h.64l.2,3.12h-.64c-.94-2.02-2.12-2.36-2.82-2.36-.98,0-1.62.58-1.62,1.38,0,.88.82,1.46,2.18,2.34,1.36.9,3.94,2.2,3.94,4.78,0,2.24-2.02,3.62-4.22,3.62-1.9,0-2.84-1-3.66-1Z"/>
      <path class="cls-1" d="M66.16,13.35c.76-.08,1.32-.34,1.32-1.24V3.81c0-1.58-.42-1.6-1.26-1.6v-.74c1.4-.1,3.02-.7,4.3-1.44.3.12.52.36.66.64-.12,1.1-.12,1.86-.12,3.14v.78l-.36,1.48h.14c.4-.88,1.46-2.2,3.5-2.2,1.48,0,3.22.7,3.22,3.62v4.62c0,.9.54,1.16,1.34,1.24v.76c-2.08-.06-4.14-.06-6.26,0v-.76c.78.06,1.36-.34,1.36-1.24v-4.62c0-1.56-.72-1.96-1.42-1.96-1.16,0-1.48,1.16-1.52,1.96v4.62c0,.9.54,1.3,1.32,1.24v.76c-2.08-.06-4.12-.06-6.22,0v-.76Z"/>
      <path class="cls-1" d="M89.08,11.43c0,.8.28,1.54,1.22,1.44v.72c-.5.28-1.1.52-1.9.52-1.22,0-2.44-.36-2.44-1.9h-.22c0,.38-1,1.9-3.16,1.9-1.28,0-2.74-.6-2.74-2.46s1.52-2.86,5.66-3.62v-1.04c0-2.24-.54-2.58-1.04-2.58-1.74,0,0,3.26-2.48,3.26-1.08,0-1.52-.66-1.52-1.36.04-1.48,2-2.62,4.94-2.62,1.56,0,3.68.24,3.68,2.92v4.82ZM85.5,10.91v-2.16c-1.84.34-2.3,1.62-2.3,2.48,0,.74.3,1.48.96,1.48.88,0,1.34-.92,1.34-1.8Z"/>
      <path class="cls-1" d="M91.89,8.99c0-3.76,2.64-5.3,5.16-5.3,2.18,0,4,1.16,4,2.88,0,.8-.44,1.58-1.48,1.58-2.32,0-.58-3.56-2.3-3.56-1.26,0-1.7,1.86-1.7,3.62,0,1.96.52,4.9,2.62,4.9.62,0,1.42-.24,2-1.38h.78c-.94,1.9-2.42,2.38-3.9,2.38-2.68,0-5.18-1.48-5.18-5.12Z"/>
      <path class="cls-1" d="M111.68,11.6c.84,1.14,1.6,1.84,2.5,1.84l-.8,1.02c-1.28,0-3.18.16-4.62-1.94l-1.86-2.74v2.3c0,.9.52,1.16,1.32,1.24v.76c-2.06-.04-4.12-.04-6.16,0v-.76c.7-.08,1.26-.34,1.26-1.24V3.78c0-1.58-.42-1.6-1.24-1.6v-.74c1.4-.1,3-.7,4.3-1.44.28.12.52.36.64.64-.12,1.1-.12,1.86-.12,3.14v5.02c3.12-1.96,3.52-3.82,1.46-4v-.74c1.66.06,3.18.06,5.04,0v.74c-1.3.18-2.18.86-4.22,3.14l2.5,3.66Z"/>
    </g>
  </g>
</svg>