<svg xmlns="http://www.w3.org/2000/svg" viewBox="0 0 31.9 38.41"><defs><style>.cls-1{fill:#222831;}.cls-2{fill:none;stroke:#222831;stroke-linecap:round;stroke-miterlimit:10;}</style></defs><title>zwart_svg</title><g id="Layer_2" data-name="Layer 2"><g id="zwart_icoon" data-name="zwart icoon"><path class="cls-1" d="M30.1,6.17,13.22.16A2.7,2.7,0,0,0,9.77,1.8l-9.61,27A2.71,2.71,0,0,0,1.8,32.24l16.87,6a2.71,2.71,0,0,0,3.46-1.64l9.61-27A2.7,2.7,0,0,0,30.1,6.17ZM11.44,26.73l-2.37-.81L8.3,28.2l-2.1-.72L7,25.21,4.59,24.4l.69-2,2.38.81.8-2.37,2.1.72-.8,2.36,2.36.81Zm5.31,4A1.69,1.69,0,1,1,18.44,29,1.69,1.69,0,0,1,16.75,30.69Zm3.84-1.79a1.69,1.69,0,1,1,1.69-1.68A1.69,1.69,0,0,1,20.59,28.9Zm3.47-5.69L7,17.11,12.15,2.5,29.26,8.59Z"/><line class="cls-2" x1="11.67" y1="7.79" x2="16.46" y2="5.3"/><line class="cls-2" x1="11.11" y1="10.75" x2="19.38" y2="6.67"/></g></g></svg>