<svg id="Layer_2" data-name="Layer 2" xmlns="http://www.w3.org/2000/svg" viewBox="0 0 31.9 38.41">
  <defs>
    <style>
      .cls-1 {
        fill: none;
        stroke: #00adb5;
        stroke-linecap: round;
        stroke-miterlimit: 10;
      }

      .cls-2 {
        fill: #00adb5;
        stroke-width: 0px;
      }
    </style>
  </defs>
  <g id="cyaan_icoon" data-name="cyaan icoon">
    <path class="cls-2" d="m30.1,6.17L13.22.16c-1.41-.5-2.96.23-3.46,1.64L.16,28.78c-.5,1.41.23,2.96,1.64,3.46l16.88,6.01c1.41.5,2.96-.23,3.46-1.64l9.61-26.98c.5-1.41-.23-2.96-1.64-3.46ZM11.44,26.73l-2.37-.81-.77,2.27-2.1-.71.77-2.27-2.38-.81.69-2.02,2.38.81.81-2.37,2.1.71-.81,2.37,2.37.81-.69,2.02Zm5.32,3.96c-.93,0-1.69-.76-1.69-1.69s.76-1.69,1.69-1.69,1.69.76,1.69,1.69-.76,1.69-1.69,1.69Zm3.84-1.79c-.93,0-1.69-.76-1.69-1.69s.76-1.69,1.69-1.69,1.69.76,1.69,1.69-.76,1.69-1.69,1.69Zm3.47-5.7l-17.11-6.1L12.15,2.5l17.11,6.1-5.21,14.62Z"/>
    <line class="cls-1" x1="11.67" y1="7.79" x2="16.46" y2="5.3"/>
    <line class="cls-1" x1="11.11" y1="10.75" x2="19.38" y2="6.67"/>
  </g>
</svg>